<?xml version="1.0" encoding="utf-8"?>
<!-- Generator: Adobe Illustrator 27.8.1, SVG Export Plug-In . SVG Version: 6.00 Build 0)  -->
<svg version="1.1" id="Layer_1" xmlns="http://www.w3.org/2000/svg" xmlns:xlink="http://www.w3.org/1999/xlink" x="0px" y="0px"
	 viewBox="0 0 200 200" style="enable-background:new 0 0 200 200;" xml:space="preserve">
<style type="text/css">
	.st0{fill:#FFFFFF;}
</style>
<g>
	<g>
		<path class="st0" d="M82,115.9v9.2H67.6v-9.2c0-4,3.2-7.2,7.2-7.2l0,0C78.8,108.8,82,112,82,115.9z"/>
		<path class="st0" d="M67.6,136.3H82v23.1c0,4-3.2,7.2-7.2,7.2l0,0c-4,0-7.2-3.2-7.2-7.2L67.6,136.3L67.6,136.3z"/>
	</g>
	<g>
		<path class="st0" d="M134.4,115.9v9.2h-14.3v-9.2c0-4,3.2-7.2,7.2-7.2l0,0C131.2,108.8,134.4,112,134.4,115.9z"/>
		<path class="st0" d="M120.1,136.3h14.3v23.1c0,4-3.2,7.2-7.2,7.2l0,0c-4,0-7.2-3.2-7.2-7.2L120.1,136.3L120.1,136.3z"/>
	</g>
	<path class="st0" d="M114.5,125.2h-6.3V116c0-4-3.2-7.2-7.2-7.2l0,0c-4,0-7.2,3.2-7.2,7.2v9.2h-6.3c-3.1,0-5.5,2.5-5.5,5.5l0,0
		c0,3.1,2.5,5.5,5.5,5.5h6.3v23.1c0,4,3.2,7.2,7.2,7.2l0,0c4,0,7.2-3.2,7.2-7.2v-23.1h6.3c3.1,0,5.5-2.5,5.5-5.5l0,0
		C120.1,127.7,117.6,125.2,114.5,125.2z"/>
	<g>
		<path class="st0" d="M177.6,57.6v101.8c0,4-3.2,7.2-7.2,7.2h-4.7c-4,0-7.2-3.2-7.2-7.2V63.2c0-4.4-3.4-6-4.4-6.4s-4.5-1.4-7.4,1.7
			l-23.2,28.7c-5.2,5.8-12.4,9.2-20.2,9.6c-7.8,0.4-15.2-2.4-21-7.7L82.3,89L52.8,57.7c-3-2.7-6.3-1.6-7.3-1.2
			c-1,0.4-4.1,2.1-4.1,6.2v96.7c0,4-3.2,7.2-7.2,7.2h-4.7c-4,0-7.2-3.2-7.2-7.2V57.6c0-9.4,5.3-18.1,13.8-22
			c8.8-4,18.8-2.4,25.9,4.2l0.2,0.2L94,73.6c2.4,2.2,5.4,3.3,8.6,3.1c3.2-0.1,6.1-1.5,8.3-3.9l25.4-31c6.6-7.4,16.8-9.9,26-6.3
			C171.6,39,177.6,47.7,177.6,57.6z"/>
	</g>
</g>
</svg>
